<svg xmlns="http://www.w3.org/2000/svg" xmlns:xlink="http://www.w3.org/1999/xlink" width="192" height="192" viewBox="0 0 192 192"><defs><clipPath id="b"><rect width="192" height="192"/></clipPath></defs><g id="a" clip-path="url(#b)"><g transform="translate(26 11)"><g transform="translate(4 2)"><path d="M64.053,45.475V4H6V136.719h99.519V45.475ZM46.969,120.13,17.611,90.765,29.3,79.069,46.886,96.655,82.049,61.484l11.694,11.7Z" transform="translate(10.64 12.64)" fill="#d9eed1"/><path d="M87,2H20.6A16.578,16.578,0,0,0,4.083,18.6L4,151.4A16.578,16.578,0,0,0,20.517,168H120.2a16.649,16.649,0,0,0,16.6-16.6V51.8Zm33.2,149.4H20.6V18.6H78.7V60.1h41.5ZM44.006,93.715l-11.786,11.7L61.6,134.8,108.58,87.822l-11.7-11.7L61.685,111.311Z" transform="translate(-4 -2)" fill="#44ab1a"/></g></g></g></svg>