<svg xmlns="http://www.w3.org/2000/svg" xmlns:xlink="http://www.w3.org/1999/xlink" width="192" height="192" viewBox="0 0 192 192"><defs><clipPath id="b"><rect width="192" height="192"/></clipPath></defs><g id="a" clip-path="url(#b)"><g transform="translate(-73.065 -201)"><g transform="translate(103.064 214)"><g transform="translate(0 0)"><path d="M64.045,45.471V4H6V136.706h99.506V45.471Z" transform="translate(10.647 12.647)" fill="#facdcf"/><path d="M87,2H20.6A16.578,16.578,0,0,0,4.083,18.6L4,151.4A16.578,16.578,0,0,0,20.517,168H120.2a16.649,16.649,0,0,0,16.6-16.6V51.8Zm33.2,149.4H20.6V18.6H78.7V60.1h41.5Z" transform="translate(-4 -2)" fill="#e30613"/></g></g><path d="M22.234,58.622H4.218V76.637H22.234Zm0-54.047H4.218V40.606H22.234Z" transform="translate(137.231 273.084)" fill="#e30613"/></g></g></svg>