<svg id="Group_977" data-name="Group 977" xmlns="http://www.w3.org/2000/svg" width="20" height="25" viewBox="0 0 20 25">
  <g id="Group_377" data-name="Group 377">
    <path id="Path_960" data-name="Path 960" d="M14.75,4H6V24H21V10.25Z" transform="translate(-3.5 -1.5)" fill="#fff" opacity="0.3"/>
    <path id="Path_961" data-name="Path 961" d="M24,9.5,16.5,2H6.5A2.5,2.5,0,0,0,4.013,4.5L4,24.5A2.5,2.5,0,0,0,6.487,27H21.5A2.507,2.507,0,0,0,24,24.5Zm-2.5,15H6.5V4.5h8.75l2.34,2.477L21.5,10.75Z" transform="translate(-4 -2)" fill="#fff"/>
  </g>
  <path id="Path_963" data-name="Path 963" d="M10,14.18,7.91,12.09,6.5,13.5,10,17l6.01-6.01L14.6,9.58Z" transform="translate(-1.5 3)" fill="#fff"/>
</svg>
