<svg xmlns="http://www.w3.org/2000/svg" xmlns:xlink="http://www.w3.org/1999/xlink" width="192" height="192" viewBox="0 0 192 192"><defs><clipPath id="b"><rect width="192" height="192"/></clipPath></defs><g id="a" clip-path="url(#b)"><g transform="translate(-90.065 -201.001)"><g transform="translate(103.064 214)"><g transform="translate(0 0)"><path d="M64.1,45.5V4H6V136.8h99.593V45.5Z" transform="translate(10.599 12.599)" fill="#fef0cf"/><path d="M86.995,2H20.6A16.577,16.577,0,0,0,4.083,18.6L4,151.4a16.577,16.577,0,0,0,16.516,16.6h99.676a16.648,16.648,0,0,0,16.6-16.6V51.8Zm33.2,149.4H20.6V18.6H78.7V60.1h41.5Z" transform="translate(-4 -2)" fill="#fab212"/></g></g><g transform="translate(160.803 271.741)"><path d="M47.3,4a43.3,43.3,0,1,0,43.3,43.3A43.292,43.292,0,0,0,47.3,4Zm23,65.767L41.891,52.716V20.239H50.01V48.657L74.368,63.109Z" transform="translate(6.826 6.826)" fill="#fef0cf"/><path d="M56.075,2a54.129,54.129,0,1,0,54.184,54.129A54.1,54.1,0,0,0,56.075,2Zm.054,97.433a43.3,43.3,0,1,1,43.3-43.3A43.292,43.292,0,0,1,56.129,99.433Zm2.706-70.368H50.716V61.542L79.134,78.593l4.06-6.658L58.836,57.483Z" transform="translate(-2 -2)" fill="#fab212"/></g></g></g></svg>