<svg id="Icon_ionic-ios-checkmark-circle-outline" data-name="Icon ionic-ios-checkmark-circle-outline" xmlns="http://www.w3.org/2000/svg" width="15.96" height="15.96" viewBox="0 0 15.96 15.96">
  <path id="Path_983" data-name="Path 983" d="M18.652,12.947l-.675-.694a.145.145,0,0,0-.107-.046h0a.139.139,0,0,0-.107.046l-4.681,4.715-1.7-1.7a.148.148,0,0,0-.215,0l-.683.683a.153.153,0,0,0,0,.219l2.148,2.148a.679.679,0,0,0,.449.219.712.712,0,0,0,.445-.211h0l5.129-5.156A.164.164,0,0,0,18.652,12.947Z" transform="translate(-6.583 -7.388)" fill="#18243e"/>
  <path id="Path_984" data-name="Path 984" d="M11.355,4.449A6.9,6.9,0,1,1,6.471,6.471a6.86,6.86,0,0,1,4.884-2.022m0-1.074a7.98,7.98,0,1,0,7.98,7.98,7.979,7.979,0,0,0-7.98-7.98Z" transform="translate(-3.375 -3.375)" fill="#18243e"/>
</svg>
