<svg xmlns="http://www.w3.org/2000/svg" width="16" height="16" viewBox="0 0 16 16">
  <g id="Group_129" data-name="Group 129" transform="translate(-1227 -246)">
    <g id="Rectangle_117" data-name="Rectangle 117" transform="translate(1227 246)" fill="none" stroke="#343a40" stroke-width="1.5">
      <path d="M2,0H7A0,0,0,0,1,7,0V7A0,0,0,0,1,7,7H0A0,0,0,0,1,0,7V2A2,2,0,0,1,2,0Z" stroke="none"/>
      <path d="M2,.75H5.5a.75.75,0,0,1,.75.75v4a.75.75,0,0,1-.75.75h-4A.75.75,0,0,1,.75,5.5V2A1.25,1.25,0,0,1,2,.75Z" fill="none"/>
    </g>
    <g id="Rectangle_118" data-name="Rectangle 118" transform="translate(1236 246)" fill="none" stroke="#343a40" stroke-width="1.5">
      <path d="M0,0H5A2,2,0,0,1,7,2V7A0,0,0,0,1,7,7H0A0,0,0,0,1,0,7V0A0,0,0,0,1,0,0Z" stroke="none"/>
      <path d="M1.5.75H5A1.25,1.25,0,0,1,6.25,2V5.5a.75.75,0,0,1-.75.75h-4A.75.75,0,0,1,.75,5.5v-4A.75.75,0,0,1,1.5.75Z" fill="none"/>
    </g>
    <g id="Rectangle_119" data-name="Rectangle 119" transform="translate(1236 255)" fill="none" stroke="#343a40" stroke-width="1.5">
      <path d="M0,0H7A0,0,0,0,1,7,0V5A2,2,0,0,1,5,7H0A0,0,0,0,1,0,7V0A0,0,0,0,1,0,0Z" stroke="none"/>
      <path d="M1.5.75h4a.75.75,0,0,1,.75.75V5A1.25,1.25,0,0,1,5,6.25H1.5A.75.75,0,0,1,.75,5.5v-4A.75.75,0,0,1,1.5.75Z" fill="none"/>
    </g>
    <g id="Rectangle_120" data-name="Rectangle 120" transform="translate(1227 255)" fill="none" stroke="#343a40" stroke-width="1.5">
      <path d="M0,0H7A0,0,0,0,1,7,0V7A0,0,0,0,1,7,7H2A2,2,0,0,1,0,5V0A0,0,0,0,1,0,0Z" stroke="none"/>
      <path d="M1.5.75h4a.75.75,0,0,1,.75.75v4a.75.75,0,0,1-.75.75H2A1.25,1.25,0,0,1,.75,5V1.5A.75.75,0,0,1,1.5.75Z" fill="none"/>
    </g>
  </g>
</svg>
