<svg xmlns="http://www.w3.org/2000/svg" xmlns:xlink="http://www.w3.org/1999/xlink" width="192" height="192" viewBox="0 0 192 192"><defs><clipPath id="b"><rect width="192" height="192"/></clipPath></defs><g id="a" clip-path="url(#b)"><g transform="translate(29 -0.051)"><g transform="translate(-16 13.051)"><g transform="translate(0)"><path d="M135.8,18.389A82.782,82.782,0,0,0,91.529,0V16.808a66.077,66.077,0,0,1,32.451,13.48Zm13.4,56.082H166A82.782,82.782,0,0,0,147.611,30.2l-11.9,11.816A66.077,66.077,0,0,1,149.192,74.471Zm-13.48,49.093,11.9,11.9A83.053,83.053,0,0,0,166,91.2H149.192A66.112,66.112,0,0,1,135.712,123.564ZM91.529,148.776v16.808A82.782,82.782,0,0,0,135.8,147.2l-11.9-11.9A65.468,65.468,0,0,1,91.529,148.776Zm-16.642,0v16.808A83.209,83.209,0,0,1,74.887,0V16.808a66.5,66.5,0,0,0,0,131.968Z" transform="translate(166 165.584) rotate(180)" fill="#18243e"/><path d="M10.778,7.444V53.7L50.1,77.016l7.124-11.842L24.655,45.838V7.444Z" transform="translate(66.357 40.546)" fill="#18243e"/></g></g></g></g></svg>