<svg xmlns="http://www.w3.org/2000/svg" xmlns:xlink="http://www.w3.org/1999/xlink" width="192" height="192" viewBox="0 0 192 192"><defs><clipPath id="b"><rect width="192" height="192"/></clipPath></defs><g id="a" clip-path="url(#b)"><g transform="translate(26 11)"><path d="M6,136.8V4H64.1V37.2h41.5v99.6Zm41.5-8.3H64.1v-8.3h8.3a8.324,8.324,0,0,0,8.3-8.3V87a8.324,8.324,0,0,0-8.3-8.3H47.5V70.4H80.7V53.8H64.1V45.5H47.5v8.3H39.2a8.324,8.324,0,0,0-8.3,8.3V87a8.324,8.324,0,0,0,8.3,8.3H64.1v8.3H30.9v16.6H47.5Z" transform="translate(14.602 14.602)" fill="#d9eed1"/><path d="M87,2H20.6A16.649,16.649,0,0,0,4,18.6V151.4A16.649,16.649,0,0,0,20.6,168h99.6a16.649,16.649,0,0,0,16.6-16.6V51.8ZM20.6,151.4V18.6H78.7V51.8h41.5v99.6Zm41.5-8.3H78.7v-8.3H87a8.324,8.324,0,0,0,8.3-8.3V101.6A8.324,8.324,0,0,0,87,93.3H62.1V85H95.3V68.4H78.7V60.1H62.1v8.3H53.8a8.324,8.324,0,0,0-8.3,8.3v24.9a8.324,8.324,0,0,0,8.3,8.3H78.7v8.3H45.5v16.6H62.1Z" transform="translate(0 0)" fill="#44ab1a"/></g></g></svg>