<svg xmlns="http://www.w3.org/2000/svg" xmlns:xlink="http://www.w3.org/1999/xlink" width="192" height="192" viewBox="0 0 192 192"><defs><clipPath id="b"><rect width="192" height="192"/></clipPath></defs><g id="a" clip-path="url(#b)"><path d="M106,147.35a33.786,33.786,0,0,1-18.26,5.36,34.357,34.357,0,1,1,34.442-34.374,33.926,33.926,0,0,1-5.326,18.251l18.616,18.557L124.6,166ZM68.722,118.336A19.1,19.1,0,1,0,87.8,99.254,19.093,19.093,0,0,0,68.722,118.336ZM51.947,152.71H15.266A15.278,15.278,0,0,1,0,137.444V15.266A15.283,15.283,0,0,1,15.266,0h91.621a15.311,15.311,0,0,1,15.291,15.266V82.538a49.237,49.237,0,0,0-15.291-10.025V15.266H68.722V72.513a48.327,48.327,0,0,0-8.888,4.826L45.8,66.822,22.89,84V15.266H15.266V137.444H41.981a49.061,49.061,0,0,0,9.965,15.24l.025.025Zm1.476-99.246v-38.2H38.165v38.2L45.8,47.74Z" transform="translate(28 13)" fill="#18243e"/></g></svg>